<svg width="66" height="69" viewBox="0 0 66 69" fill="none" xmlns="http://www.w3.org/2000/svg">
<path fill-rule="evenodd" clip-rule="evenodd" d="M0.690186 3.08019C0.690186 1.92877 1.57721 0.995361 2.67141 0.995361H11.6741C12.6836 0.995361 13.5318 1.7942 13.6432 2.85008L14.491 10.8838H63.3287C63.9992 10.8838 64.6243 11.2407 64.9897 11.8323C65.3552 12.4239 65.4115 13.1698 65.1394 13.8147L55.7458 36.0751C55.4279 36.8283 54.7182 37.3138 53.9351 37.3138H17.2803L17.2921 37.4262C17.2921 37.4264 17.2921 37.4265 17.2922 37.4267C17.776 42.0013 21.4509 45.4642 25.8262 45.4642H53.3202C54.4144 45.4642 55.3014 46.3976 55.3014 47.549C55.3014 48.7005 54.4144 49.6339 53.3202 49.6339H25.8262C19.4307 49.6339 14.0608 44.5723 13.354 37.8873L13.3539 37.8869L13.1529 35.9819C13.0669 35.7483 13.0198 35.4945 13.0198 35.229C13.0198 35.1248 13.027 35.0224 13.0411 34.9222L10.7602 13.309C10.7491 13.2381 10.7414 13.1659 10.7373 13.0927L9.90069 5.16501H2.67141C1.57721 5.16501 0.690186 4.2316 0.690186 3.08019ZM14.931 15.0535L16.8402 33.1442H52.6471L60.2811 15.0535H14.931Z" fill="white"/>
<path d="M26.3991 63.1832C26.3991 66.0613 24.2215 68.3945 21.5352 68.3945C18.849 68.3945 16.6714 66.0613 16.6714 63.1832C16.6714 60.3051 18.849 57.9719 21.5352 57.9719C24.2215 57.9719 26.3991 60.3051 26.3991 63.1832Z" fill="white"/>
<path d="M49.3285 63.1832C49.3285 66.0613 47.1509 68.3945 44.4647 68.3945C41.7784 68.3945 39.6008 66.0613 39.6008 63.1832C39.6008 60.3051 41.7784 57.9719 44.4647 57.9719C47.1509 57.9719 49.3285 60.3051 49.3285 63.1832Z" fill="white"/>
</svg>
