<svg width="51" height="48" viewBox="0 0 51 48" fill="none" xmlns="http://www.w3.org/2000/svg">
<path d="M12.9505 0.0133667C12.8508 0.0214424 12.5279 0.0577812 12.2329 0.0941238C6.3132 0.788647 1.45386 5.32323 0.269917 11.2549C-0.260266 13.92 0.00283246 17.3401 0.951581 20.2312C1.95614 23.2718 3.64236 25.9287 6.52049 29.0016C7.88382 30.4552 9.04783 31.5455 12.8508 34.9373C13.7716 35.757 14.7961 36.6736 15.123 36.9765C19.205 40.6914 22.0393 43.8086 24.475 47.2611L24.9932 48H25.5194L26.0456 47.996L26.5638 47.2207C28.7842 43.9015 31.3952 40.9215 35.2739 37.2834C36.0353 36.5646 36.9004 35.7772 39.3679 33.5564C43.1789 30.1161 45.1282 28.1334 46.7068 26.0862C49.27 22.7549 50.5655 19.6134 50.9482 15.7774C51.024 14.986 51.016 13.0922 50.9283 12.4057C50.5097 9.15522 49.1703 6.36097 46.9499 4.11185C44.7295 1.86273 41.967 0.501953 38.762 0.0820084C37.9926 -0.0149002 36.3184 -0.0149002 35.5331 0.0820084C32.6111 0.457535 30.0359 1.64468 27.8793 3.61115C27.1179 4.30567 26.2608 5.29496 25.7466 6.07428C25.627 6.25599 25.5194 6.40539 25.5074 6.40539C25.4955 6.40539 25.3878 6.25599 25.2682 6.07428C24.754 5.29496 23.8969 4.30567 23.1355 3.61115C21.0188 1.68103 18.4715 0.489841 15.6492 0.110275C15.0672 0.0295181 13.4089 -0.0270157 12.9505 0.0133667Z" fill="white"/>
</svg>
