<svg width="22" height="30" viewBox="0 0 22 30" fill="none" xmlns="http://www.w3.org/2000/svg">
<g opacity="0.6">
<path d="M11.2228 0.978035C8.55305 0.876389 5.95155 1.83492 3.98664 3.64423C2.02173 5.45354 0.853109 7.96656 0.736084 10.6343C0.736084 20.0093 8.01487 26.778 10.4349 28.7468C10.6567 28.9297 10.9353 29.0297 11.2228 29.0297C11.5103 29.0297 11.7889 28.9297 12.0107 28.7468C14.4307 26.778 21.7095 20.0655 21.7095 10.6343C21.5925 7.96656 20.4239 5.45354 18.4589 3.64423C16.494 1.83492 13.8925 0.876389 11.2228 0.978035ZM11.2228 26.253C9.47954 24.7221 7.92978 22.9843 6.60789 21.078C4.39607 18.0367 3.16564 14.3932 3.08105 10.6343C3.19738 8.58801 4.11868 6.67075 5.64396 5.30082C7.16925 3.93089 9.1747 3.21947 11.2228 3.32179C13.2709 3.21947 15.2763 3.93089 16.8016 5.30082C18.3269 6.67075 19.2482 8.58801 19.3645 10.6343C19.3645 18.2843 13.8116 24.0593 11.2228 26.253Z" fill="white"/>
<path d="M11.2228 4.76706C10.5455 4.73949 9.86953 4.84656 9.23398 5.08207C8.59843 5.31759 8.01598 5.67685 7.52039 6.13904C7.02481 6.60123 6.62595 7.15715 6.34694 7.77456C6.06793 8.39198 5.91432 9.05861 5.89502 9.73581C5.9168 10.4122 6.07207 11.0777 6.35193 11.6939C6.63178 12.3102 7.0307 12.8651 7.52577 13.3268C8.02084 13.7885 8.6023 14.1479 9.23675 14.3844C9.8712 14.6208 10.5461 14.7296 11.2228 14.7046C12.5849 14.7451 13.9077 14.2453 14.9024 13.3143C15.8971 12.3834 16.4829 11.0969 16.5318 9.73581C16.51 9.06103 16.3553 8.39716 16.0767 7.78216C15.798 7.16716 15.4007 6.6131 14.9077 6.15164C14.4146 5.69017 13.8354 5.33037 13.2031 5.09279C12.5708 4.85522 11.8979 4.74453 11.2228 4.76706ZM11.2228 12.3608C10.4843 12.4018 9.75959 12.1485 9.20754 11.6565C8.65548 11.1645 8.32105 10.4738 8.27751 9.73581C8.32105 8.99781 8.65548 8.30715 9.20754 7.81512C9.75959 7.3231 10.4843 7.06983 11.2228 7.11081C11.9632 7.0697 12.69 7.3224 13.245 7.81395C13.8001 8.30551 14.1385 8.99618 14.1868 9.73581C14.1385 10.4754 13.8001 11.1661 13.245 11.6577C12.69 12.1492 11.9632 12.4019 11.2228 12.3608Z" fill="white"/>
</g>
</svg>
