<svg width="31" height="22" viewBox="0 0 31 22" fill="none" xmlns="http://www.w3.org/2000/svg">
<path opacity="0.6" fill-rule="evenodd" clip-rule="evenodd" d="M0.215088 2.54932C0.215088 1.51378 1.05499 0.674316 2.09106 0.674316H28.3548C29.3909 0.674316 30.2308 1.51378 30.2308 2.54932V19.4511C30.2308 20.4866 29.3909 21.3261 28.3548 21.3261H2.09106C1.05499 21.3261 0.215088 20.4866 0.215088 19.4511V2.54932ZM2.56006 4.39843V18.9824H27.8858V4.39844L17.5935 13.7823C16.2505 15.0067 14.1954 15.0067 12.8524 13.7823L2.56006 4.39843ZM25.9203 3.01807H4.52559L14.4328 12.0507C14.8804 12.4589 15.5655 12.4589 16.0131 12.0507L25.9203 3.01807Z" fill="white"/>
</svg>
