<svg width="23" height="31" viewBox="0 0 23 31" fill="none" xmlns="http://www.w3.org/2000/svg">
<path d="M20.646 22.2189L20.2369 27.7808C15.0527 26.8399 10.4002 23.9745 7.17839 19.7381C3.93581 15.468 2.37265 10.1173 2.79317 4.72765L2.89818 3.30009L8.0122 3.67587L9.26737 8.50263L6.56851 9.87007L4.55892 10.8222L5.54136 12.8888C7.30391 16.5894 9.88426 19.8221 13.0806 22.334L15.074 23.8412L16.4051 21.665L17.4878 19.8805L20.6515 22.1447L20.646 22.2189ZM22.9264 22.3119C22.9529 21.9119 22.8781 21.5119 22.7093 21.1503C22.5405 20.7887 22.2832 20.4775 21.9622 20.2466L18.7931 18.0565C18.5405 17.872 18.2531 17.7425 17.9488 17.6764C17.6446 17.6102 17.33 17.6088 17.0248 17.6721C16.7196 17.7354 16.4304 17.8621 16.1751 18.0443C15.9199 18.2265 15.7041 18.4602 15.5414 18.7309L14.4586 20.5154C11.5429 18.2202 9.19214 15.2655 7.59144 11.8838L10.2776 10.4408C10.6146 10.2736 10.9063 10.0246 11.1269 9.71574C11.3474 9.40686 11.4901 9.04764 11.5423 8.66979C11.5619 8.41089 11.5377 8.15062 11.4708 7.9003L10.2225 2.98084C10.0848 2.5311 9.81595 2.13505 9.45162 1.84526C9.08729 1.55547 8.64471 1.38567 8.18267 1.3584L2.99584 0.97728C2.3925 0.932946 1.7959 1.13459 1.3373 1.53785C0.878704 1.94111 0.595668 2.51295 0.550458 3.12758L0.448181 4.51806C0.00895436 10.4682 1.74591 16.3674 5.32468 21.08C8.90344 25.7926 14.071 28.9854 19.8326 30.0438C20.1478 30.0981 20.4708 30.0848 20.781 30.0047C21.0912 29.9247 21.3818 29.7797 21.6342 29.5789C21.8865 29.3782 22.0952 29.1262 22.2468 28.839C22.3984 28.5518 22.4896 28.2357 22.5146 27.9109L22.9264 22.3119Z" fill="white"/>
</svg>
